<svg fill="none" xmlns="http://www.w3.org/2000/svg" 
    stroke="currentColor" stroke-width="2" stroke-linecap="round"
    width="50px" height="50px"
    stroke-linejoin="round" class="icon icon-email">
    <title>Email</title>
    <path d="m11.5 14c-3.5742 0-6.4922 2.9141-6.5 6.4844v0.00781 0.00781 41c0 3.5781 2.9219 6.5 6.5 6.5h57c3.5781 0 6.5-2.9219 6.5-6.5v-41-0.00781-0.00781c-0.00781-3.5703-2.9258-6.4844-6.5-6.4844h-57zm0 2h57c0.94531 0 1.8203 0.28906 2.543 0.78125l1.1016 1.2695c0.57813 0.66797 0.85547 1.5195 0.85547 2.4453v0.00391c-0.00391 1.6328-0.80078 3.1562-2.1406 4.0898l-30.859 21.504-30.859-21.504c-1.3398-0.93359-2.1367-2.457-2.1406-4.0898v-0.00391c0-0.96093 0.30469-1.8438 0.8125-2.5742l1.1211-1.1211c0.72657-0.5 1.6094-0.80078 2.5664-0.80078zm-4.5 9.3633c0.30469 0.31641 0.63281 0.60938 1 0.86719l3.9766 2.7695c1.0234 0.89063 1.0039 0.78125 0.96875 0.67578l27.055 18.855 27.055-18.855 4.9453-3.4453c0.36719-0.25781 0.69531-0.55078 1-0.86719v36.137c0 2.3281-1.7461 4.1992-4 4.4492l-56 0.05078c-4.2539-0.30078-6-2.1719-6-4.5v-36.137z"/>
</svg>
